<svg width="900" height="143" viewBox="0 0 900 143" fill="none" xmlns="http://www.w3.org/2000/svg">
<g clip-path="url(#clip0_377_27)">
<path d="M438.196 28.0761C444.977 19.6623 450 13.5051 452.642 10.6136C453.141 10.1146 453.016 9.35492 452.517 8.85599L443.219 0.317496C442.72 -0.181433 441.96 -0.0567009 441.461 0.442228C437.697 4.59241 430.281 13.7546 420.869 25.5588C406.174 43.7697 376.657 80.6904 361.712 94.8872C363.22 86.8477 366.486 75.2929 368.743 67.3781C376.782 38.7464 378.914 28.9492 373.142 23.5404C371.26 21.7828 368.743 20.8983 366.112 21.0231C357.823 21.522 347.277 33.0767 319.643 67.4915C317.886 69.6233 316.128 71.8911 314.371 74.0229C314.246 69.2491 314.246 64.2258 314.246 60.5859C314.246 46.1396 314.121 43.1233 312.738 40.4926C311.354 37.8506 308.848 36.2177 305.832 36.093C299.301 35.8435 295.91 41.1163 280.716 65.8586C277.949 70.2583 275.443 74.5219 273.175 77.9123C269.785 82.6861 266.519 88.3331 263.253 93.742C260.237 98.7653 255.214 107.179 250.95 112.577C252.458 104.537 255.849 92.608 258.105 84.1943C266.145 55.5625 268.276 45.7654 262.505 40.3565C260.747 38.599 258.23 37.7145 255.599 37.8392C248.569 38.0887 240.28 43.9965 207.498 79.7833C206.239 81.1667 204.98 82.5501 203.608 83.9335V75.1455C203.733 63.0918 203.608 60.0756 202.225 57.3088C200.966 54.7915 198.585 53.2947 195.818 53.1586C191.044 52.9092 188.913 53.907 171.076 79.1596C167.062 84.8066 162.537 91.4628 157.004 99.3776L130.504 26.9081C130.379 26.4092 129.88 26.0237 129.37 26.0237H114.674C114.175 26.0237 113.665 26.3979 113.54 26.9081L80.7584 115.956C80.6337 116.33 80.6337 116.704 80.8832 117.09C81.1326 117.464 81.5068 117.588 81.8924 117.588H96.0892C96.5881 117.588 97.0984 117.214 97.2231 116.704L104.503 95.8511H139.042L145.948 115.57L142.932 119.97C138.657 126.252 135.266 131.275 133.509 133.781C133.259 134.03 133.259 134.405 133.259 134.665C133.259 135.04 133.509 135.289 133.758 135.414L144.054 142.569C144.304 142.694 144.553 142.818 144.803 142.818C145.177 142.818 145.551 142.694 145.812 142.32C147.694 139.677 151.085 134.654 155.36 128.384L155.609 128.009C163.649 116.205 178.095 94.8532 188.391 80.5317C188.391 96.6108 189.139 102.757 194.424 105.648C197.19 107.156 200.456 107.032 203.212 105.274C205.343 103.891 208.235 100.874 218.406 89.8299C225.561 82.0398 239.633 66.5957 249.056 58.1819C247.548 64.8381 245.167 73.3766 243.285 80.0328C235.619 107.542 232.614 120.344 236.753 127.125C238.261 129.506 240.518 131.139 243.16 131.649C256.098 134.416 265.26 119.085 275.817 101.26C278.958 95.9871 282.224 90.5896 285.24 86.3147L285.365 86.0653C287.746 82.3006 290.388 78.0257 293.28 73.3766C294.912 70.7345 296.795 67.6049 298.677 64.5886C298.677 87.4486 299.561 93.8554 305.084 96.8716C307.851 98.3797 311.116 98.255 313.747 96.4974C316.264 94.8645 319.394 91.0999 330.824 76.7784C337.73 68.1151 349.919 52.9205 358.832 43.4975C357.324 49.7795 355.192 57.3088 353.559 63.0918C345.894 90.601 342.889 103.403 347.028 110.184C348.536 112.565 350.792 114.198 353.434 114.708C360.975 116.341 370.013 110.059 404.802 67.9904L387.214 115.718C387.09 116.092 387.09 116.466 387.339 116.851C387.588 117.226 387.963 117.35 388.348 117.35H402.545C403.044 117.35 403.554 116.976 403.679 116.466L410.959 95.6129H445.498L452.778 116.466C452.903 116.965 453.402 117.35 453.912 117.35H468.109C468.483 117.35 468.857 117.101 469.118 116.851C469.367 116.477 469.367 116.103 469.243 115.718L438.218 28.0534L438.196 28.0761ZM441.836 82.8336H416.594L429.158 47.2962L441.847 82.8336H441.836ZM134.892 82.8336H109.651L122.215 47.2962L134.904 82.8336H134.892Z" fill="currentColor"/>
<path d="M71.2108 26.1937H57.7737C57.0253 26.1937 56.5151 26.6927 56.5151 27.4524V64.3731H15.9544V27.4524C15.9544 26.704 15.4555 26.1937 14.6957 26.1937H1.25866C0.510268 26.1937 0 26.6927 0 27.4524V116.5C0 117.248 0.498929 117.759 1.25866 117.759H14.6957C15.4441 117.759 15.9544 117.26 15.9544 116.5V77.9463H56.5264V116.5C56.5264 117.248 57.0253 117.759 57.7851 117.759H71.2221C71.9705 117.759 72.4808 117.26 72.4808 116.5V27.4524C72.4808 26.8287 71.8571 26.1937 71.2221 26.1937H71.2108Z" fill="currentColor"/>
<path d="M524.601 79.4431C530.373 77.436 534.648 74.1703 537.539 69.7706C540.556 65.1215 542.188 59.8488 542.188 54.0771C542.188 48.929 541.055 44.2799 538.673 40.005C536.417 35.7301 532.766 32.3396 528.003 29.8336C523.354 27.3163 517.333 26.1937 510.042 26.1937H479.391C478.643 26.1937 478.133 26.6927 478.133 27.4524V116.5C478.133 117.248 478.632 117.759 479.391 117.759H492.829C493.577 117.759 494.087 117.26 494.087 116.5V81.8357H507.898L524.851 116.999C525.1 117.373 525.474 117.747 525.985 117.747H541.678C542.052 117.747 542.563 117.498 542.812 117.124C543.062 116.749 543.062 116.239 542.812 115.865L524.601 79.4431ZM525.724 54.4513C525.724 58.8509 524.465 62.3661 521.834 65.1215C519.192 67.7636 515.054 69.1356 509.271 69.1356H494.076V39.9936H509.146C515.054 39.9936 519.317 41.2523 521.834 43.883C524.477 46.5251 525.724 50.0403 525.724 54.4286V54.4513Z" fill="currentColor"/>
<path d="M630.102 26.1937H615.905C615.406 26.1937 614.896 26.5679 614.771 27.0782L589.156 98.7879L563.665 27.0782C563.54 26.5793 563.041 26.1937 562.531 26.1937H548.21C547.835 26.1937 547.461 26.4432 547.2 26.6927C546.94 26.9421 546.951 27.441 547.076 27.8266L579.982 116.874C580.107 117.373 580.606 117.759 581.116 117.759H597.445C597.944 117.759 598.454 117.384 598.579 116.874L631.485 27.8266C631.61 27.4524 631.61 27.0782 631.361 26.6927C631.111 26.3071 630.612 26.1937 630.102 26.1937Z" fill="currentColor"/>
<path d="M657.475 26.1937H644.038C643.29 26.1937 642.779 26.6927 642.779 27.4524V116.5C642.779 117.248 643.278 117.759 644.038 117.759H657.475C658.223 117.759 658.734 117.26 658.734 116.5V27.4524C658.734 26.8287 658.11 26.1937 657.475 26.1937Z" fill="currentColor"/>
<path d="M710.611 63.1145L742.894 28.3255C743.268 27.9513 743.268 27.441 743.143 26.9421C742.894 26.4432 742.52 26.1937 742.01 26.1937H725.307C724.933 26.1937 724.683 26.3185 724.422 26.5679L691.516 62.3661V27.4524C691.516 26.704 691.017 26.1937 690.257 26.1937H676.82C676.072 26.1937 675.561 26.6927 675.561 27.4524V116.5C675.561 117.248 676.06 117.759 676.82 117.759H690.257C691.005 117.759 691.516 117.26 691.516 116.5V83.718L699.181 75.429L725.307 117.248C725.556 117.622 725.93 117.872 726.316 117.872H742.769C743.268 117.872 743.654 117.622 743.903 117.248C744.153 116.874 744.153 116.364 743.903 115.99L710.622 63.1145H710.611Z" fill="currentColor"/>
<path d="M811.077 26.1938H754.437C753.689 26.1938 753.179 26.6928 753.179 27.4525V116.5C753.179 117.248 753.678 117.759 754.437 117.759H811.077C811.826 117.759 812.336 117.26 812.336 116.5V105.569C812.336 104.821 811.837 104.31 811.077 104.31H769.258V78.0598H807.313C808.061 78.0598 808.571 77.5609 808.571 76.8011V66.1308C808.571 65.3824 808.072 64.8722 807.313 64.8722H769.258V39.6309H811.077C811.826 39.6309 812.336 39.132 812.336 38.3722V27.4412C812.336 26.8175 811.712 26.1825 811.077 26.1825V26.1938Z" fill="currentColor"/>
<path d="M898.741 26.1937H885.304C884.556 26.1937 884.046 26.6927 884.046 27.4524V90.3741L841.716 26.8287C841.467 26.4545 841.092 26.3298 840.707 26.3298H827.27C826.521 26.3298 826.011 26.8287 826.011 27.5885V116.636C826.011 117.384 826.51 117.895 827.27 117.895H840.707C841.455 117.895 841.966 117.396 841.966 116.636V53.7142L884.295 117.26C884.545 117.634 884.919 117.759 885.304 117.759H898.741C899.49 117.759 900 117.26 900 116.5V27.4524C900 26.8287 899.377 26.1937 898.741 26.1937Z" fill="currentColor"/>
</g>
<defs>
<clipPath id="clip0_377_27">
<rect width="900" height="142.864" fill="white"/>
</clipPath>
</defs>
</svg>
